# xmcd
#
# Track frame offsets:
# 150
# 11295
# 20607
# 30785
# 42742
# 51532
# 65235
# 75432
# 86502
# 97965
#
# Disc length: 1428 seconds
#
#
# Revision: 0
# Processed by: cddbd v1.4PL0 Copyright (c) Steve Scherf et al.
# Submitted via: FreeRIP 2.12 
#
DISCID=7405920a
DTITLE=Canned Heat - Canned Heat Collection
DYEAR=1900
DGENRE=R&B
TTITLE0=Spoonful
TTITLE1=Big Road Blues
TTITLE2=Rolling and Tumbling
TTITLE3=Got My Mojo Working
TTITLE4=Pretty Thing
TTITLE5=Louise
TTITLE6=Dimples
TTITLE7=Can't Hold On
TTITLE8=Straight Ahead
TTITLE9=Rolling And Tumbling (with Harmonica)
EXTD=
EXTT0=
EXTT1=
EXTT2=
EXTT3=
EXTT4=
EXTT5=
EXTT6=
EXTT7=
EXTT8=
EXTT9=
PLAYORDER=
